<svg width="178" height="43" viewBox="0 0 178 43" fill="none" xmlns="http://www.w3.org/2000/svg">
<path d="M101.41 31.9629H94.5723V29.2031H101.41C102.734 29.2031 103.807 28.9922 104.627 28.5703C105.447 28.1484 106.045 27.5625 106.42 26.8125C106.807 26.0625 107 25.207 107 24.2461C107 23.3672 106.807 22.541 106.42 21.7676C106.045 20.9941 105.447 20.373 104.627 19.9043C103.807 19.4238 102.734 19.1836 101.41 19.1836H95.3633V42H91.9707V16.4062H101.41C103.344 16.4062 104.979 16.7402 106.314 17.4082C107.65 18.0762 108.664 19.002 109.355 20.1855C110.047 21.3574 110.393 22.6992 110.393 24.2109C110.393 25.8516 110.047 27.252 109.355 28.4121C108.664 29.5723 107.65 30.457 106.314 31.0664C104.979 31.6641 103.344 31.9629 101.41 31.9629ZM125.193 38.748V28.957C125.193 28.207 125.041 27.5566 124.736 27.0059C124.443 26.4434 123.998 26.0098 123.4 25.7051C122.803 25.4004 122.064 25.248 121.186 25.248C120.365 25.248 119.645 25.3887 119.023 25.6699C118.414 25.9512 117.934 26.3203 117.582 26.7773C117.242 27.2344 117.072 27.7266 117.072 28.2539H113.82C113.82 27.5742 113.996 26.9004 114.348 26.2324C114.699 25.5645 115.203 24.9609 115.859 24.4219C116.527 23.8711 117.324 23.4375 118.25 23.1211C119.188 22.793 120.23 22.6289 121.379 22.6289C122.762 22.6289 123.98 22.8633 125.035 23.332C126.102 23.8008 126.934 24.5098 127.531 25.459C128.141 26.3965 128.445 27.5742 128.445 28.9922V37.8516C128.445 38.4844 128.498 39.1582 128.604 39.873C128.721 40.5879 128.891 41.2031 129.113 41.7188V42H125.721C125.557 41.625 125.428 41.127 125.334 40.5059C125.24 39.873 125.193 39.2871 125.193 38.748ZM125.756 30.4688L125.791 32.7539H122.504C121.578 32.7539 120.752 32.8301 120.025 32.9824C119.299 33.123 118.689 33.3398 118.197 33.6328C117.705 33.9258 117.33 34.2949 117.072 34.7402C116.814 35.1738 116.686 35.6836 116.686 36.2695C116.686 36.8672 116.82 37.4121 117.09 37.9043C117.359 38.3965 117.764 38.7891 118.303 39.082C118.854 39.3633 119.527 39.5039 120.324 39.5039C121.32 39.5039 122.199 39.293 122.961 38.8711C123.723 38.4492 124.326 37.9336 124.771 37.3242C125.229 36.7148 125.475 36.123 125.51 35.5488L126.898 37.1133C126.816 37.6055 126.594 38.1504 126.23 38.748C125.867 39.3457 125.381 39.9199 124.771 40.4707C124.174 41.0098 123.459 41.4609 122.627 41.8242C121.807 42.1758 120.881 42.3516 119.85 42.3516C118.561 42.3516 117.43 42.0996 116.457 41.5957C115.496 41.0918 114.746 40.418 114.207 39.5742C113.68 38.7188 113.416 37.7637 113.416 36.709C113.416 35.6895 113.615 34.793 114.014 34.0195C114.412 33.2344 114.986 32.584 115.736 32.0684C116.486 31.541 117.389 31.1426 118.443 30.873C119.498 30.6035 120.676 30.4688 121.977 30.4688H125.756ZM138.377 38.625L143.264 22.9805H145.408L144.986 26.0918L140.012 42H137.92L138.377 38.625ZM135.09 22.9805L139.256 38.8008L139.555 42H137.357L131.838 22.9805H135.09ZM150.084 38.6777L154.057 22.9805H157.291L151.771 42H149.592L150.084 38.6777ZM145.883 22.9805L150.664 38.3613L151.209 42H149.135L144.02 26.0566L143.598 22.9805H145.883ZM163.883 25.9688V42H160.631V22.9805H163.795L163.883 25.9688ZM169.824 22.875L169.807 25.8984C169.537 25.8398 169.279 25.8047 169.033 25.793C168.799 25.7695 168.529 25.7578 168.225 25.7578C167.475 25.7578 166.812 25.875 166.238 26.1094C165.664 26.3438 165.178 26.6719 164.779 27.0938C164.381 27.5156 164.064 28.0195 163.83 28.6055C163.607 29.1797 163.461 29.8125 163.391 30.5039L162.477 31.0312C162.477 29.8828 162.588 28.8047 162.811 27.7969C163.045 26.7891 163.402 25.8984 163.883 25.125C164.363 24.3398 164.973 23.7305 165.711 23.2969C166.461 22.8516 167.352 22.6289 168.383 22.6289C168.617 22.6289 168.887 22.6582 169.191 22.7168C169.496 22.7637 169.707 22.8164 169.824 22.875ZM176.697 16.4062L176.469 34.7754H173.533L173.287 16.4062H176.697ZM173.182 40.3652C173.182 39.8379 173.34 39.3926 173.656 39.0293C173.984 38.666 174.465 38.4844 175.098 38.4844C175.719 38.4844 176.193 38.666 176.521 39.0293C176.861 39.3926 177.031 39.8379 177.031 40.3652C177.031 40.8691 176.861 41.3027 176.521 41.666C176.193 42.0293 175.719 42.2109 175.098 42.2109C174.465 42.2109 173.984 42.0293 173.656 41.666C173.34 41.3027 173.182 40.8691 173.182 40.3652Z" fill="black"/>
<path fill-rule="evenodd" clip-rule="evenodd" d="M9.91461 0H36.2211L39.6681 42H0.508621L9.91461 0Z" fill="#C5CFD6"/>
<path fill-rule="evenodd" clip-rule="evenodd" d="M9.91461 0H18.0053L22.8478 42H0.508621L9.91461 0Z" fill="black" fill-opacity="0.1"/>
<path fill-rule="evenodd" clip-rule="evenodd" d="M36.1344 0H62.4409L65.8879 42H26.7285L36.1344 0Z" fill="#C5CFD6"/>
<path fill-rule="evenodd" clip-rule="evenodd" d="M36.1344 0H44.2252L49.0677 42H26.7285L36.1344 0Z" fill="black" fill-opacity="0.1"/>
<path fill-rule="evenodd" clip-rule="evenodd" d="M82.3613 0H56.0548L52.6078 42H91.7672L82.3613 0Z" fill="#C5CFD6"/>
<path fill-rule="evenodd" clip-rule="evenodd" d="M62.0137 0H70.1045L74.947 42H52.6078L62.0137 0Z" fill="black" fill-opacity="0.1"/>
</svg>
