<svg width="193" height="36" viewBox="0 0 193 36" fill="none" xmlns="http://www.w3.org/2000/svg">
<g filter="url(#filter0_i_0_1)">
<path d="M91.5469 21.6172H82.4297V17.9375H91.5469C93.3125 17.9375 94.7422 17.6562 95.8359 17.0938C96.9297 16.5312 97.7266 15.75 98.2266 14.75C98.7422 13.75 99 12.6094 99 11.3281C99 10.1562 98.7422 9.05469 98.2266 8.02344C97.7266 6.99219 96.9297 6.16406 95.8359 5.53906C94.7422 4.89844 93.3125 4.57812 91.5469 4.57812H83.4844V35H78.9609V0.875H91.5469C94.125 0.875 96.3047 1.32031 98.0859 2.21094C99.8672 3.10156 101.219 4.33594 102.141 5.91406C103.062 7.47656 103.523 9.26562 103.523 11.2812C103.523 13.4688 103.062 15.3359 102.141 16.8828C101.219 18.4297 99.8672 19.6094 98.0859 20.4219C96.3047 21.2188 94.125 21.6172 91.5469 21.6172ZM123.258 30.6641V17.6094C123.258 16.6094 123.055 15.7422 122.648 15.0078C122.258 14.2578 121.664 13.6797 120.867 13.2734C120.07 12.8672 119.086 12.6641 117.914 12.6641C116.82 12.6641 115.859 12.8516 115.031 13.2266C114.219 13.6016 113.578 14.0938 113.109 14.7031C112.656 15.3125 112.43 15.9688 112.43 16.6719H108.094C108.094 15.7656 108.328 14.8672 108.797 13.9766C109.266 13.0859 109.938 12.2812 110.812 11.5625C111.703 10.8281 112.766 10.25 114 9.82812C115.25 9.39062 116.641 9.17188 118.172 9.17188C120.016 9.17188 121.641 9.48438 123.047 10.1094C124.469 10.7344 125.578 11.6797 126.375 12.9453C127.188 14.1953 127.594 15.7656 127.594 17.6562V29.4688C127.594 30.3125 127.664 31.2109 127.805 32.1641C127.961 33.1172 128.188 33.9375 128.484 34.625V35H123.961C123.742 34.5 123.57 33.8359 123.445 33.0078C123.32 32.1641 123.258 31.3828 123.258 30.6641ZM124.008 19.625L124.055 22.6719H119.672C118.438 22.6719 117.336 22.7734 116.367 22.9766C115.398 23.1641 114.586 23.4531 113.93 23.8438C113.273 24.2344 112.773 24.7266 112.43 25.3203C112.086 25.8984 111.914 26.5781 111.914 27.3594C111.914 28.1562 112.094 28.8828 112.453 29.5391C112.812 30.1953 113.352 30.7188 114.07 31.1094C114.805 31.4844 115.703 31.6719 116.766 31.6719C118.094 31.6719 119.266 31.3906 120.281 30.8281C121.297 30.2656 122.102 29.5781 122.695 28.7656C123.305 27.9531 123.633 27.1641 123.68 26.3984L125.531 28.4844C125.422 29.1406 125.125 29.8672 124.641 30.6641C124.156 31.4609 123.508 32.2266 122.695 32.9609C121.898 33.6797 120.945 34.2812 119.836 34.7656C118.742 35.2344 117.508 35.4688 116.133 35.4688C114.414 35.4688 112.906 35.1328 111.609 34.4609C110.328 33.7891 109.328 32.8906 108.609 31.7656C107.906 30.625 107.555 29.3516 107.555 27.9453C107.555 26.5859 107.82 25.3906 108.352 24.3594C108.883 23.3125 109.648 22.4453 110.648 21.7578C111.648 21.0547 112.852 20.5234 114.258 20.1641C115.664 19.8047 117.234 19.625 118.969 19.625H124.008ZM140.836 30.5L147.352 9.64062H150.211L149.648 13.7891L143.016 35H140.227L140.836 30.5ZM136.453 9.64062L142.008 30.7344L142.406 35H139.477L132.117 9.64062H136.453ZM156.445 30.5703L161.742 9.64062H166.055L158.695 35H155.789L156.445 30.5703ZM150.844 9.64062L157.219 30.1484L157.945 35H155.18L148.359 13.7422L147.797 9.64062H150.844ZM174.844 13.625V35H170.508V9.64062H174.727L174.844 13.625ZM182.766 9.5L182.742 13.5312C182.383 13.4531 182.039 13.4062 181.711 13.3906C181.398 13.3594 181.039 13.3438 180.633 13.3438C179.633 13.3438 178.75 13.5 177.984 13.8125C177.219 14.125 176.57 14.5625 176.039 15.125C175.508 15.6875 175.086 16.3594 174.773 17.1406C174.477 17.9062 174.281 18.75 174.188 19.6719L172.969 20.375C172.969 18.8438 173.117 17.4062 173.414 16.0625C173.727 14.7188 174.203 13.5312 174.844 12.5C175.484 11.4531 176.297 10.6406 177.281 10.0625C178.281 9.46875 179.469 9.17188 180.844 9.17188C181.156 9.17188 181.516 9.21094 181.922 9.28906C182.328 9.35156 182.609 9.42188 182.766 9.5ZM191.93 0.875L191.625 25.3672H187.711L187.383 0.875H191.93ZM187.242 32.8203C187.242 32.1172 187.453 31.5234 187.875 31.0391C188.312 30.5547 188.953 30.3125 189.797 30.3125C190.625 30.3125 191.258 30.5547 191.695 31.0391C192.148 31.5234 192.375 32.1172 192.375 32.8203C192.375 33.4922 192.148 34.0703 191.695 34.5547C191.258 35.0391 190.625 35.2812 189.797 35.2812C188.953 35.2812 188.312 35.0391 187.875 34.5547C187.453 34.0703 187.242 33.4922 187.242 32.8203Z" fill="black"/>
</g>
<path fill-rule="evenodd" clip-rule="evenodd" d="M8.55107 1H29.8627L32.6552 35H0.93103L8.55107 1Z" fill="#18181D"/>
<path fill-rule="evenodd" clip-rule="evenodd" d="M8.55107 1H15.1056L19.0286 35H0.93103L8.55107 1Z" fill="#39393D"/>
<path fill-rule="evenodd" clip-rule="evenodd" d="M29.7924 1H51.1041L53.8966 35H22.1724L29.7924 1Z" fill="#18181D"/>
<path fill-rule="evenodd" clip-rule="evenodd" d="M29.7924 1H36.347L40.27 35H22.1724L29.7924 1Z" fill="#39393D"/>
<path fill-rule="evenodd" clip-rule="evenodd" d="M67.242 1H45.9304L43.1379 35H74.8621L67.242 1Z" fill="#18181D"/>
<path fill-rule="evenodd" clip-rule="evenodd" d="M50.758 1H57.3125L61.2355 35H43.1379L50.758 1Z" fill="#39393D"/>
<defs>
<filter id="filter0_i_0_1" x="78.9609" y="0.875" width="113.414" height="38.5938" filterUnits="userSpaceOnUse" color-interpolation-filters="sRGB">
<feFlood flood-opacity="0" result="BackgroundImageFix"/>
<feBlend mode="normal" in="SourceGraphic" in2="BackgroundImageFix" result="shape"/>
<feColorMatrix in="SourceAlpha" type="matrix" values="0 0 0 0 0 0 0 0 0 0 0 0 0 0 0 0 0 0 127 0" result="hardAlpha"/>
<feOffset dy="4"/>
<feGaussianBlur stdDeviation="2"/>
<feComposite in2="hardAlpha" operator="arithmetic" k2="-1" k3="1"/>
<feColorMatrix type="matrix" values="0 0 0 0 0 0 0 0 0 0 0 0 0 0 0 0 0 0 0.25 0"/>
<feBlend mode="normal" in2="shape" result="effect1_innerShadow_0_1"/>
</filter>
</defs>
</svg>
