<svg width="193" height="34" viewBox="0 0 193 34" fill="none" xmlns="http://www.w3.org/2000/svg">
<g filter="url(#filter0_i_6_2)">
<path d="M90.3828 21.5201H81.5938V16.4657H90.3828C91.8203 16.4657 92.9844 16.2317 93.875 15.7637C94.7812 15.2801 95.4453 14.6249 95.8672 13.7981C96.2891 12.9558 96.5 11.9963 96.5 10.9199C96.5 9.87471 96.2891 8.89974 95.8672 7.99495C95.4453 7.09015 94.7812 6.35696 93.875 5.79537C92.9844 5.23377 91.8203 4.95297 90.3828 4.95297H83.7031V33.9454H77.2578V0H83.8203H90.3828C93.0391 0 95.3047 0.350995 97.1797 1.30259C99.0703 2.23859 100.508 3.54118 101.492 5.21037C102.492 6.86396 102.992 8.75154 102.992 10.8731C102.992 13.0728 102.492 14.9681 101.492 16.5593C100.508 18.1505 99.0703 19.375 97.1797 20.233C95.3047 21.0911 93.0391 21.5201 90.3828 21.5201ZM121.273 28.5634V16.8869C121.273 16.0289 121.125 15.2879 120.828 14.6639C120.531 14.0399 120.078 13.5563 119.469 13.2131C118.859 12.8699 118.086 12.6984 117.148 12.6984C116.32 12.6984 115.594 12.8387 114.969 13.1195C114.359 13.4003 113.891 13.7981 113.562 14.3129C113.234 14.8121 113.07 15.3893 113.07 16.0445H106.859C106.859 14.9993 107.109 14.0087 107.609 13.0728C108.109 12.1211 108.82 11.2788 109.742 10.5455C110.68 9.79674 111.797 9.21178 113.094 8.79055C114.406 8.36934 115.875 8.15875 117.5 8.15875C119.422 8.15875 121.133 8.48635 122.633 9.14149C124.148 9.78116 125.336 10.7483 126.195 12.0431C127.07 13.3379 127.508 14.9681 127.508 16.9337V27.9784C127.508 29.2421 127.586 30.3262 127.742 31.231C127.914 32.1202 128.164 32.8924 128.492 33.5476V33.9454H122.188C121.891 33.3058 121.664 32.4946 121.508 31.5118C121.352 30.5134 121.273 29.5306 121.273 28.5634ZM122.141 18.5249L122.188 22.1987H118.273C117.305 22.1987 116.453 22.3 115.719 22.5029C114.984 22.6901 114.383 22.9708 113.914 23.3452C113.445 23.7041 113.094 24.1409 112.859 24.6556C112.625 25.1548 112.508 25.7242 112.508 26.3638C112.508 26.9878 112.648 27.5495 112.93 28.0487C113.227 28.5479 113.648 28.9456 114.195 29.2421C114.758 29.5228 115.414 29.6632 116.164 29.6632C117.258 29.6632 118.211 29.4448 119.023 29.008C119.836 28.5557 120.469 28.0096 120.922 27.3701C121.375 26.7304 121.617 26.1221 121.648 25.5448L123.43 28.2124C123.211 28.852 122.883 29.5306 122.445 30.2482C122.008 30.9658 121.445 31.6366 120.758 32.2606C120.07 32.8846 119.242 33.3994 118.273 33.805C117.5 33.9454 116.282 33.9454 115 33.9454C113.36 33.9454 111.789 34.0858 110.492 33.4306C109.195 32.7754 108.172 31.8784 107.422 30.7396C106.672 29.6008 106.297 28.3061 106.297 26.8552C106.297 25.5136 106.547 24.3281 107.047 23.2984C107.547 22.2689 108.289 21.4031 109.273 20.7011C110.258 19.9834 111.477 19.4453 112.93 19.0865C114.398 18.7121 116.078 18.5249 117.969 18.5249H122.141ZM140.141 27.8614L145.695 8.62674H149.633L148.461 15.2723L142.859 33.9454H139.461L140.141 27.8614ZM137.07 8.62674L141.242 27.9082L141.617 33.9454H137.703L131.047 8.62674H137.07ZM154.789 27.6274L158.867 8.62674H164.867L158.258 33.9454H154.344L154.789 27.6274ZM150.242 8.62674L155.75 27.6743L156.477 33.9454H153.078L147.43 15.2723L146.281 8.62674H150.242ZM174.711 13.7981V33.9454H168.523V8.62674H174.383L174.711 13.7981ZM182.422 8.46294L182.328 14.2193C181.984 14.1569 181.594 14.1101 181.156 14.0789C180.734 14.0477 180.336 14.0321 179.961 14.0321C179.008 14.0321 178.172 14.1647 177.453 14.4299C176.734 14.6795 176.133 15.0461 175.648 15.5297C175.18 16.0133 174.82 16.6061 174.57 17.3081C174.32 17.9944 174.18 18.7745 174.148 19.6481L172.812 19.4843C172.812 17.8774 172.977 16.3877 173.305 15.0149C173.633 13.6422 174.109 12.4409 174.734 11.4113C175.359 10.3817 176.141 9.58618 177.078 9.02458C178.031 8.44735 179.125 8.15875 180.359 8.15875C180.703 8.15875 181.07 8.18994 181.461 8.25234C181.867 8.29915 182.188 8.36934 182.422 8.46294ZM193 0L192.195 23.7196H186.969L186.414 0H193ZM185.969 30.7708C185.969 29.8504 186.281 29.0782 186.906 28.4542C187.547 27.8145 188.406 27.4948 189.484 27.4948C190.562 27.4948 191.414 27.8145 192.039 28.4542C192.679 29.0782 193 29.8504 193 30.7708C193 31.6755 192.679 32.44 192.039 33.064C191.414 33.688 190.562 34 189.484 34C188.406 34 187.547 33.688 186.906 33.064C186.281 32.44 185.969 31.6755 185.969 30.7708Z" fill="black"/>
<path d="M186.906 28.4542C186.281 29.0782 185.969 29.8504 185.969 30.7708C185.969 31.6755 186.281 32.44 186.906 33.064C187.547 33.688 188.406 34 189.484 34C190.562 34 191.414 33.688 192.039 33.064C192.679 32.44 193 31.6755 193 30.7708C193 29.8504 192.679 29.0782 192.039 28.4542C191.414 27.8145 190.562 27.4948 189.484 27.4948C188.406 27.4948 187.547 27.8145 186.906 28.4542Z" fill="black"/>
</g>
<path fill-rule="evenodd" clip-rule="evenodd" d="M8.4461 0H29.2712L32 34H1L8.4461 0Z" fill="#18181D"/>
<path fill-rule="evenodd" clip-rule="evenodd" d="M7.57895 0H14.0981L18 34H0L7.57895 0Z" fill="#39393D"/>
<path fill-rule="evenodd" clip-rule="evenodd" d="M28.4461 0H49.2712L52 34H21L28.4461 0Z" fill="#18181D"/>
<path fill-rule="evenodd" clip-rule="evenodd" d="M28.5789 0H35.0981L39 34H21L28.5789 0Z" fill="#39393D"/>
<path fill-rule="evenodd" clip-rule="evenodd" d="M65.5539 0H44.7288L42 34H73L65.5539 0Z" fill="#18181D"/>
<path fill-rule="evenodd" clip-rule="evenodd" d="M49.4461 0H55.851L59.6845 34H42L49.4461 0Z" fill="#39393D"/>
<defs>
<filter id="filter0_i_6_2" x="77.2578" y="0" width="115.742" height="38" filterUnits="userSpaceOnUse" color-interpolation-filters="sRGB">
<feFlood flood-opacity="0" result="BackgroundImageFix"/>
<feBlend mode="normal" in="SourceGraphic" in2="BackgroundImageFix" result="shape"/>
<feColorMatrix in="SourceAlpha" type="matrix" values="0 0 0 0 0 0 0 0 0 0 0 0 0 0 0 0 0 0 127 0" result="hardAlpha"/>
<feOffset dy="4"/>
<feGaussianBlur stdDeviation="2"/>
<feComposite in2="hardAlpha" operator="arithmetic" k2="-1" k3="1"/>
<feColorMatrix type="matrix" values="0 0 0 0 0 0 0 0 0 0 0 0 0 0 0 0 0 0 0.25 0"/>
<feBlend mode="normal" in2="shape" result="effect1_innerShadow_6_2"/>
</filter>
</defs>
</svg>
