<svg width="194" height="36" viewBox="0 0 194 36" fill="none" xmlns="http://www.w3.org/2000/svg">
<g filter="url(#filter0_i_0_1)">
<path d="M90.3828 22.5547H81.5938V17.4922H90.3828C91.8203 17.4922 92.9844 17.2578 93.875 16.7891C94.7812 16.3047 95.4453 15.6484 95.8672 14.8203C96.2891 13.9766 96.5 13.0156 96.5 11.9375C96.5 10.8906 96.2891 9.91406 95.8672 9.00781C95.4453 8.10156 94.7812 7.36719 93.875 6.80469C92.9844 6.24219 91.8203 5.96094 90.3828 5.96094H83.7031V35H77.2578V0.875H90.3828C93.0391 0.875 95.3047 1.35156 97.1797 2.30469C99.0703 3.24219 100.508 4.54688 101.492 6.21875C102.492 7.875 102.992 9.76562 102.992 11.8906C102.992 14.0938 102.492 15.9922 101.492 17.5859C100.508 19.1797 99.0703 20.4062 97.1797 21.2656C95.3047 22.125 93.0391 22.5547 90.3828 22.5547ZM121.273 29.6094V17.9141C121.273 17.0547 121.125 16.3125 120.828 15.6875C120.531 15.0625 120.078 14.5781 119.469 14.2344C118.859 13.8906 118.086 13.7188 117.148 13.7188C116.32 13.7188 115.594 13.8594 114.969 14.1406C114.359 14.4219 113.891 14.8203 113.562 15.3359C113.234 15.8359 113.07 16.4141 113.07 17.0703H106.859C106.859 16.0234 107.109 15.0312 107.609 14.0938C108.109 13.1406 108.82 12.2969 109.742 11.5625C110.68 10.8125 111.797 10.2266 113.094 9.80469C114.406 9.38281 115.875 9.17188 117.5 9.17188C119.422 9.17188 121.133 9.5 122.633 10.1562C124.148 10.7969 125.336 11.7656 126.195 13.0625C127.07 14.3594 127.508 15.9922 127.508 17.9609V29.0234C127.508 30.2891 127.586 31.375 127.742 32.2812C127.914 33.1719 128.164 33.9453 128.492 34.6016V35H122.188C121.891 34.3594 121.664 33.5469 121.508 32.5625C121.352 31.5625 121.273 30.5781 121.273 29.6094ZM122.141 19.5547L122.188 23.2344H118.273C117.305 23.2344 116.453 23.3359 115.719 23.5391C114.984 23.7266 114.383 24.0078 113.914 24.3828C113.445 24.7422 113.094 25.1797 112.859 25.6953C112.625 26.1953 112.508 26.7656 112.508 27.4062C112.508 28.0312 112.648 28.5938 112.93 29.0938C113.227 29.5938 113.648 29.9922 114.195 30.2891C114.758 30.5703 115.414 30.7109 116.164 30.7109C117.258 30.7109 118.211 30.4922 119.023 30.0547C119.836 29.6016 120.469 29.0547 120.922 28.4141C121.375 27.7734 121.617 27.1641 121.648 26.5859L123.43 29.2578C123.211 29.8984 122.883 30.5781 122.445 31.2969C122.008 32.0156 121.445 32.6875 120.758 33.3125C120.07 33.9375 119.242 34.4531 118.273 34.8594C117.305 35.2656 116.18 35.4688 114.898 35.4688C113.258 35.4688 111.789 35.1406 110.492 34.4844C109.195 33.8281 108.172 32.9297 107.422 31.7891C106.672 30.6484 106.297 29.3516 106.297 27.8984C106.297 26.5547 106.547 25.3672 107.047 24.3359C107.547 23.3047 108.289 22.4375 109.273 21.7344C110.258 21.0156 111.477 20.4766 112.93 20.1172C114.398 19.7422 116.078 19.5547 117.969 19.5547H122.141ZM140.141 28.9062L145.695 9.64062H149.633L148.461 16.2969L142.859 35H139.461L140.141 28.9062ZM137.07 9.64062L141.242 28.9531L141.617 35H137.703L131.047 9.64062H137.07ZM154.789 28.6719L158.867 9.64062H164.867L158.258 35H154.344L154.789 28.6719ZM150.242 9.64062L155.75 28.7188L156.477 35H153.078L147.43 16.2969L146.281 9.64062H150.242ZM174.711 14.8203V35H168.523V9.64062H174.383L174.711 14.8203ZM182.422 9.47656L182.328 15.2422C181.984 15.1797 181.594 15.1328 181.156 15.1016C180.734 15.0703 180.336 15.0547 179.961 15.0547C179.008 15.0547 178.172 15.1875 177.453 15.4531C176.734 15.7031 176.133 16.0703 175.648 16.5547C175.18 17.0391 174.82 17.6328 174.57 18.3359C174.32 19.0234 174.18 19.8047 174.148 20.6797L172.812 20.5156C172.812 18.9062 172.977 17.4141 173.305 16.0391C173.633 14.6641 174.109 13.4609 174.734 12.4297C175.359 11.3984 176.141 10.6016 177.078 10.0391C178.031 9.46094 179.125 9.17188 180.359 9.17188C180.703 9.17188 181.07 9.20312 181.461 9.26562C181.867 9.3125 182.188 9.38281 182.422 9.47656ZM192.875 0.875L192.195 24.7578H186.969L186.289 0.875H192.875ZM186.102 32.1172C186.102 31.1953 186.414 30.4219 187.039 29.7969C187.68 29.1562 188.539 28.8359 189.617 28.8359C190.695 28.8359 191.547 29.1562 192.172 29.7969C192.812 30.4219 193.133 31.1953 193.133 32.1172C193.133 33.0234 192.812 33.7891 192.172 34.4141C191.547 35.0391 190.695 35.3516 189.617 35.3516C188.539 35.3516 187.68 35.0391 187.039 34.4141C186.414 33.7891 186.102 33.0234 186.102 32.1172Z" fill="black"/>
</g>
<path fill-rule="evenodd" clip-rule="evenodd" d="M8.4461 1H29.2712L32 35H1L8.4461 1Z" fill="#18181D"/>
<path fill-rule="evenodd" clip-rule="evenodd" d="M7.57895 1H14.0981L18 35H0L7.57895 1Z" fill="#39393D"/>
<path fill-rule="evenodd" clip-rule="evenodd" d="M28.4461 1H49.2712L52 35H21L28.4461 1Z" fill="#18181D"/>
<path fill-rule="evenodd" clip-rule="evenodd" d="M28.5789 1H35.0981L39 35H21L28.5789 1Z" fill="#39393D"/>
<path fill-rule="evenodd" clip-rule="evenodd" d="M65.5539 1H44.7288L42 35H73L65.5539 1Z" fill="#18181D"/>
<path fill-rule="evenodd" clip-rule="evenodd" d="M49.4461 1H55.851L59.6845 35H42L49.4461 1Z" fill="#39393D"/>
<defs>
<filter id="filter0_i_0_1" x="77.2578" y="0.875" width="115.875" height="38.5938" filterUnits="userSpaceOnUse" color-interpolation-filters="sRGB">
<feFlood flood-opacity="0" result="BackgroundImageFix"/>
<feBlend mode="normal" in="SourceGraphic" in2="BackgroundImageFix" result="shape"/>
<feColorMatrix in="SourceAlpha" type="matrix" values="0 0 0 0 0 0 0 0 0 0 0 0 0 0 0 0 0 0 127 0" result="hardAlpha"/>
<feOffset dy="4"/>
<feGaussianBlur stdDeviation="2"/>
<feComposite in2="hardAlpha" operator="arithmetic" k2="-1" k3="1"/>
<feColorMatrix type="matrix" values="0 0 0 0 0 0 0 0 0 0 0 0 0 0 0 0 0 0 0.25 0"/>
<feBlend mode="normal" in2="shape" result="effect1_innerShadow_0_1"/>
</filter>
</defs>
</svg>
