<svg width="1838" height="212" viewBox="0 0 1838 212" fill="none" xmlns="http://www.w3.org/2000/svg">
<rect width="1838" height="212" fill="white"/>
<path d="M391.5 92.7461C391.5 54.6384 422.392 23.7461 460.5 23.7461C498.608 23.7461 529.5 54.6384 529.5 92.7461C529.5 130.854 498.608 161.746 460.5 161.746C422.392 161.746 391.5 130.854 391.5 92.7461Z" fill="#F5F5F5"/>
<path d="M679.82 92.7461C679.82 54.6384 710.713 23.7461 748.82 23.7461C786.928 23.7461 817.82 54.6384 817.82 92.7461C817.82 130.854 786.928 161.746 748.82 161.746C710.713 161.746 679.82 130.854 679.82 92.7461Z" fill="#F5F5F5"/>
<path d="M968.15 92.7461C968.15 54.6384 999.043 23.7461 1037.15 23.7461C1075.26 23.7461 1106.15 54.6384 1106.15 92.7461C1106.15 130.854 1075.26 161.746 1037.15 161.746C999.043 161.746 968.15 130.854 968.15 92.7461Z" fill="#F5F5F5"/>
<path d="M1256.48 92.7461C1256.48 54.6384 1287.37 23.7461 1325.48 23.7461C1363.59 23.7461 1394.48 54.6384 1394.48 92.7461C1394.48 130.854 1363.59 161.746 1325.48 161.746C1287.37 161.746 1256.48 130.854 1256.48 92.7461Z" fill="#FADE2A"/>
<path d="M449.47 81.806V70.606H469.49V120.096H456.89V81.806H449.47Z" fill="#231F20"/>
<path d="M731.98 111.136C746.82 100.566 754.24 92.0963 754.24 85.8663C754.24 82.0163 752.56 80.1263 749.27 80.1263C747.38 80.1263 746.05 80.7563 745.21 82.0863C744.162 83.9394 743.653 86.0489 743.74 88.1763H732.05C732.33 82.1563 734.15 77.6063 737.51 74.5963C741.026 71.5178 745.58 69.8912 750.25 70.0463C755.64 70.0463 759.7 71.3763 762.43 74.1063C765.161 76.9331 766.627 80.7481 766.49 84.6763C766.363 89.8714 764.404 94.8545 760.96 98.7463C757.255 103.374 752.779 107.329 747.73 110.436H767.26V120.096H731.98V111.136V111.136Z" fill="#231F20"/>
<path d="M1037.66 68.9957C1041.09 68.9957 1044.1 69.6257 1046.55 70.7457C1048.85 71.8305 1050.81 73.5251 1052.22 75.6457C1053.48 77.7457 1054.11 80.1257 1054.11 82.7157C1054.23 85.5133 1053.37 88.2647 1051.66 90.4857C1050.07 92.3959 1047.87 93.7047 1045.43 94.1957V94.5457C1051.8 96.5757 1055.02 100.566 1055.02 106.516C1055.09 109.17 1054.41 111.79 1053.06 114.076C1051.73 116.328 1049.75 118.131 1047.39 119.256C1044.57 120.58 1041.48 121.227 1038.36 121.146C1033.5 121.411 1028.7 119.92 1024.85 116.946C1021.49 114.146 1019.67 109.876 1019.39 104.136H1031.08C1031.15 106.306 1031.78 108.056 1032.9 109.316C1034.02 110.576 1035.63 111.206 1037.8 111.206C1039.33 111.296 1040.83 110.737 1041.93 109.666C1042.93 108.581 1043.45 107.147 1043.4 105.676C1043.4 101.616 1040.46 99.5857 1034.58 99.5857H1032.34V89.8557H1034.51C1039.76 89.9257 1042.42 88.0357 1042.42 84.1857C1042.42 82.5057 1042 81.1757 1041.09 80.2657C1040.08 79.3372 1038.75 78.8571 1037.38 78.9357C1035.86 78.8669 1034.4 79.4839 1033.39 80.6157C1032.36 81.9406 1031.77 83.5573 1031.71 85.2357H1020.02C1019.95 80.7229 1021.72 76.3754 1024.92 73.1957C1028.47 70.212 1033.03 68.7082 1037.66 68.9957V68.9957Z" fill="#231F20"/>
<path d="M1302.74 111.386V101.376L1325.35 70.3662H1338.23V100.956H1344.18V111.386H1338.23V120.486H1326.12V111.386H1302.74ZM1327.1 84.2262L1314.92 100.956H1327.1V84.2262Z" fill="#231F20"/>
<path d="M565.83 15.7962C565.83 15.7962 617.04 -20.1038 682.87 19.9362" stroke="#231F20" stroke-width="1.5" stroke-miterlimit="2" stroke-linecap="round"/>
<path d="M674.914 8.03016C677.163 10.039 684.116 15.9123 683.674 19.726C683.329 22.694 676.537 22.4933 667.577 18.2135" stroke="#231F20" stroke-width="1.49838" stroke-miterlimit="2" stroke-linecap="round"/>
<path d="M932.207 154.481C935.749 151.607 942.642 143.316 946.939 147.087C950.353 150.083 946.035 160.354 942.985 165.107" stroke="#231F20" stroke-width="1.49972" stroke-miterlimit="2" stroke-linecap="round"/>
<path d="M837.17 152.166C854.41 173.806 913.11 196.966 946.99 147.166" stroke="#231F20" stroke-width="1.5" stroke-miterlimit="2" stroke-linecap="round"/>
<path d="M1240.71 19.9693C1243.72 23.4989 1252.28 30.2993 1248.73 34.7618C1245.91 38.3076 1235.5 34.1748 1230.64 31.1924" stroke="#231F20" stroke-width="1.50819" stroke-miterlimit="2" stroke-linecap="round"/>
<path d="M1119 31.9763C1119 31.9763 1186.48 -13.5138 1248.48 34.0662" stroke="#231F20" stroke-width="1.5" stroke-miterlimit="2" stroke-linecap="round"/>
<path d="M1 12.356C1 12.356 118.83 245.606 356.83 115.606" stroke="#231F20" stroke-width="1.5" stroke-miterlimit="2" stroke-linecap="round"/>
<path d="M151.033 135.141C155.126 138.764 162.425 144.141 161.09 147.604C160.174 149.977 152.875 150.071 143.666 147.584" stroke="#231F20" stroke-width="1.46593" stroke-miterlimit="2" stroke-linecap="round"/>
<path d="M340.369 114.98C345.845 114.218 354.779 112.145 356.562 115.449C357.784 117.714 353.055 123.385 345.086 128.827" stroke="#231F20" stroke-width="1.48292" stroke-miterlimit="2" stroke-linecap="round"/>
<path d="M1450.1 142.506C1484.32 155.156 1545.25 169.466 1620.23 151.656C1684.76 136.326 1759.7 97.2061 1836.98 12.7461" stroke="#231F20" stroke-width="1.5" stroke-miterlimit="2" stroke-linecap="round"/>
<path d="M1604.83 146.141C1609.33 146.832 1620.05 146.371 1620.26 152.062C1620.42 156.583 1610.02 160.267 1604.49 161.197" stroke="#231F20" stroke-width="1.49336" stroke-miterlimit="2" stroke-linecap="round"/>
<path d="M406.296 203L402.6 196.472H401.016V203H397.656V186.248H403.944C405.24 186.248 406.344 186.48 407.256 186.944C408.168 187.392 408.848 188.008 409.296 188.792C409.76 189.56 409.992 190.424 409.992 191.384C409.992 192.488 409.672 193.488 409.032 194.384C408.392 195.264 407.44 195.872 406.176 196.208L410.184 203H406.296ZM401.016 193.952H403.824C404.736 193.952 405.416 193.736 405.864 193.304C406.312 192.856 406.536 192.24 406.536 191.456C406.536 190.688 406.312 190.096 405.864 189.68C405.416 189.248 404.736 189.032 403.824 189.032H401.016V193.952ZM425.391 196.064C425.391 196.544 425.359 196.976 425.295 197.36H415.575C415.655 198.32 415.991 199.072 416.583 199.616C417.175 200.16 417.903 200.432 418.767 200.432C420.015 200.432 420.903 199.896 421.431 198.824H425.055C424.671 200.104 423.935 201.16 422.847 201.992C421.759 202.808 420.423 203.216 418.839 203.216C417.559 203.216 416.407 202.936 415.383 202.376C414.375 201.8 413.583 200.992 413.007 199.952C412.447 198.912 412.167 197.712 412.167 196.352C412.167 194.976 412.447 193.768 413.007 192.728C413.567 191.688 414.351 190.888 415.359 190.328C416.367 189.768 417.527 189.488 418.839 189.488C420.103 189.488 421.231 189.76 422.223 190.304C423.231 190.848 424.007 191.624 424.551 192.632C425.111 193.624 425.391 194.768 425.391 196.064ZM421.911 195.104C421.895 194.24 421.583 193.552 420.975 193.04C420.367 192.512 419.623 192.248 418.743 192.248C417.911 192.248 417.207 192.504 416.631 193.016C416.071 193.512 415.727 194.208 415.599 195.104H421.911ZM433.052 189.488C434.044 189.488 434.916 189.688 435.668 190.088C436.42 190.472 437.012 190.976 437.444 191.6V189.704H440.828V203.096C440.828 204.328 440.58 205.424 440.084 206.384C439.588 207.36 438.844 208.128 437.852 208.688C436.86 209.264 435.66 209.552 434.252 209.552C432.364 209.552 430.812 209.112 429.596 208.232C428.396 207.352 427.716 206.152 427.556 204.632H430.892C431.068 205.24 431.444 205.72 432.02 206.072C432.612 206.44 433.324 206.624 434.156 206.624C435.132 206.624 435.924 206.328 436.532 205.736C437.14 205.16 437.444 204.28 437.444 203.096V201.032C437.012 201.656 436.412 202.176 435.644 202.592C434.892 203.008 434.028 203.216 433.052 203.216C431.932 203.216 430.908 202.928 429.98 202.352C429.052 201.776 428.316 200.968 427.771 199.928C427.243 198.872 426.979 197.664 426.979 196.304C426.979 194.96 427.243 193.768 427.771 192.728C428.316 191.688 429.044 190.888 429.956 190.328C430.884 189.768 431.916 189.488 433.052 189.488ZM437.444 196.352C437.444 195.536 437.284 194.84 436.964 194.264C436.644 193.672 436.212 193.224 435.668 192.92C435.124 192.6 434.54 192.44 433.916 192.44C433.292 192.44 432.716 192.592 432.188 192.896C431.66 193.2 431.228 193.648 430.892 194.24C430.572 194.816 430.412 195.504 430.412 196.304C430.412 197.104 430.572 197.808 430.892 198.416C431.228 199.008 431.66 199.464 432.188 199.784C432.732 200.104 433.308 200.264 433.916 200.264C434.54 200.264 435.124 200.112 435.668 199.808C436.212 199.488 436.644 199.04 436.964 198.464C437.284 197.872 437.444 197.168 437.444 196.352ZM445.813 188.12C445.221 188.12 444.725 187.936 444.325 187.568C443.941 187.184 443.749 186.712 443.749 186.152C443.749 185.592 443.941 185.128 444.325 184.76C444.725 184.376 445.221 184.184 445.813 184.184C446.405 184.184 446.893 184.376 447.277 184.76C447.677 185.128 447.877 185.592 447.877 186.152C447.877 186.712 447.677 187.184 447.277 187.568C446.893 187.936 446.405 188.12 445.813 188.12ZM447.469 189.704V203H444.109V189.704H447.469ZM455.877 203.216C454.789 203.216 453.813 203.024 452.949 202.64C452.085 202.24 451.397 201.704 450.885 201.032C450.389 200.36 450.117 199.616 450.069 198.8H453.453C453.517 199.312 453.765 199.736 454.197 200.072C454.645 200.408 455.197 200.576 455.853 200.576C456.493 200.576 456.989 200.448 457.341 200.192C457.709 199.936 457.893 199.608 457.893 199.208C457.893 198.776 457.669 198.456 457.221 198.248C456.789 198.024 456.093 197.784 455.133 197.528C454.141 197.288 453.325 197.04 452.685 196.784C452.061 196.528 451.517 196.136 451.053 195.608C450.605 195.08 450.381 194.368 450.381 193.472C450.381 192.736 450.589 192.064 451.005 191.456C451.437 190.848 452.045 190.368 452.829 190.016C453.629 189.664 454.565 189.488 455.637 189.488C457.221 189.488 458.485 189.888 459.429 190.688C460.373 191.472 460.893 192.536 460.989 193.88H457.773C457.725 193.352 457.501 192.936 457.101 192.632C456.717 192.312 456.197 192.152 455.541 192.152C454.933 192.152 454.461 192.264 454.125 192.488C453.805 192.712 453.645 193.024 453.645 193.424C453.645 193.872 453.869 194.216 454.317 194.456C454.765 194.68 455.461 194.912 456.405 195.152C457.365 195.392 458.157 195.64 458.781 195.896C459.405 196.152 459.941 196.552 460.389 197.096C460.853 197.624 461.093 198.328 461.109 199.208C461.109 199.976 460.893 200.664 460.461 201.272C460.045 201.88 459.437 202.36 458.637 202.712C457.853 203.048 456.933 203.216 455.877 203.216ZM467.779 192.464V198.896C467.779 199.344 467.883 199.672 468.091 199.88C468.315 200.072 468.683 200.168 469.195 200.168H470.755V203H468.643C465.811 203 464.395 201.624 464.395 198.872V192.464H462.811V189.704H464.395V186.416H467.779V189.704H470.755V192.464H467.779ZM476.532 191.768C476.964 191.064 477.524 190.512 478.212 190.112C478.916 189.712 479.716 189.512 480.612 189.512V193.04H479.724C478.668 193.04 477.868 193.288 477.324 193.784C476.796 194.28 476.532 195.144 476.532 196.376V203H473.172V189.704H476.532V191.768ZM482.011 196.304C482.011 194.96 482.275 193.768 482.803 192.728C483.347 191.688 484.075 190.888 484.987 190.328C485.915 189.768 486.947 189.488 488.083 189.488C489.075 189.488 489.939 189.688 490.675 190.088C491.427 190.488 492.027 190.992 492.475 191.6V189.704H495.859V203H492.475V201.056C492.043 201.68 491.443 202.2 490.675 202.616C489.923 203.016 489.051 203.216 488.059 203.216C486.939 203.216 485.915 202.928 484.987 202.352C484.075 201.776 483.347 200.968 482.803 199.928C482.275 198.872 482.011 197.664 482.011 196.304ZM492.475 196.352C492.475 195.536 492.315 194.84 491.995 194.264C491.675 193.672 491.243 193.224 490.699 192.92C490.155 192.6 489.571 192.44 488.947 192.44C488.323 192.44 487.747 192.592 487.219 192.896C486.691 193.2 486.259 193.648 485.923 194.24C485.603 194.816 485.443 195.504 485.443 196.304C485.443 197.104 485.603 197.808 485.923 198.416C486.259 199.008 486.691 199.464 487.219 199.784C487.763 200.104 488.339 200.264 488.947 200.264C489.571 200.264 490.155 200.112 490.699 199.808C491.243 199.488 491.675 199.04 491.995 198.464C492.315 197.872 492.475 197.168 492.475 196.352ZM503.052 192.464V198.896C503.052 199.344 503.156 199.672 503.364 199.88C503.588 200.072 503.956 200.168 504.468 200.168H506.028V203H503.916C501.084 203 499.668 201.624 499.668 198.872V192.464H498.084V189.704H499.668V186.416H503.052V189.704H506.028V192.464H503.052ZM520.805 196.064C520.805 196.544 520.773 196.976 520.709 197.36H510.989C511.069 198.32 511.405 199.072 511.997 199.616C512.589 200.16 513.317 200.432 514.181 200.432C515.429 200.432 516.317 199.896 516.845 198.824H520.469C520.085 200.104 519.349 201.16 518.261 201.992C517.173 202.808 515.837 203.216 514.253 203.216C512.973 203.216 511.821 202.936 510.797 202.376C509.789 201.8 508.997 200.992 508.421 199.952C507.861 198.912 507.581 197.712 507.581 196.352C507.581 194.976 507.861 193.768 508.421 192.728C508.981 191.688 509.765 190.888 510.773 190.328C511.781 189.768 512.941 189.488 514.253 189.488C515.517 189.488 516.645 189.76 517.637 190.304C518.645 190.848 519.421 191.624 519.965 192.632C520.525 193.624 520.805 194.768 520.805 196.064ZM517.325 195.104C517.309 194.24 516.997 193.552 516.389 193.04C515.781 192.512 515.037 192.248 514.157 192.248C513.325 192.248 512.621 192.504 512.045 193.016C511.485 193.512 511.141 194.208 511.013 195.104H517.325Z" fill="black"/>
<path d="M708.016 190.96V195.16H713.656V197.824H708.016V202.264H714.376V205H704.656V188.224H714.376V190.96H708.016ZM724.773 205L722.037 200.872L719.613 205H716.013L720.357 198.328L715.965 191.704H719.757L722.469 195.808L724.917 191.704H728.517L724.149 198.328L728.565 205H724.773ZM733.75 193.624C734.182 193.016 734.774 192.512 735.526 192.112C736.294 191.696 737.166 191.488 738.142 191.488C739.278 191.488 740.302 191.768 741.214 192.328C742.142 192.888 742.87 193.688 743.398 194.728C743.942 195.752 744.214 196.944 744.214 198.304C744.214 199.664 743.942 200.872 743.398 201.928C742.87 202.968 742.142 203.776 741.214 204.352C740.302 204.928 739.278 205.216 738.142 205.216C737.166 205.216 736.302 205.016 735.55 204.616C734.814 204.216 734.214 203.712 733.75 203.104V211.336H730.39V191.704H733.75V193.624ZM740.782 198.304C740.782 197.504 740.614 196.816 740.278 196.24C739.958 195.648 739.526 195.2 738.982 194.896C738.454 194.592 737.878 194.44 737.254 194.44C736.646 194.44 736.07 194.6 735.526 194.92C734.998 195.224 734.566 195.672 734.23 196.264C733.91 196.856 733.75 197.552 733.75 198.352C733.75 199.152 733.91 199.848 734.23 200.44C734.566 201.032 734.998 201.488 735.526 201.808C736.07 202.112 736.646 202.264 737.254 202.264C737.878 202.264 738.454 202.104 738.982 201.784C739.526 201.464 739.958 201.008 740.278 200.416C740.614 199.824 740.782 199.12 740.782 198.304ZM750.016 187.24V205H746.656V187.24H750.016ZM759.24 205.216C757.96 205.216 756.808 204.936 755.784 204.376C754.76 203.8 753.952 202.992 753.36 201.952C752.784 200.912 752.496 199.712 752.496 198.352C752.496 196.992 752.792 195.792 753.384 194.752C753.992 193.712 754.816 192.912 755.856 192.352C756.896 191.776 758.056 191.488 759.336 191.488C760.616 191.488 761.776 191.776 762.816 192.352C763.856 192.912 764.672 193.712 765.264 194.752C765.872 195.792 766.176 196.992 766.176 198.352C766.176 199.712 765.864 200.912 765.24 201.952C764.632 202.992 763.8 203.8 762.744 204.376C761.704 204.936 760.536 205.216 759.24 205.216ZM759.24 202.288C759.848 202.288 760.416 202.144 760.944 201.856C761.488 201.552 761.92 201.104 762.24 200.512C762.56 199.92 762.72 199.2 762.72 198.352C762.72 197.088 762.384 196.12 761.712 195.448C761.056 194.76 760.248 194.416 759.288 194.416C758.328 194.416 757.52 194.76 756.864 195.448C756.224 196.12 755.904 197.088 755.904 198.352C755.904 199.616 756.216 200.592 756.84 201.28C757.48 201.952 758.28 202.288 759.24 202.288ZM772 193.768C772.432 193.064 772.992 192.512 773.68 192.112C774.384 191.712 775.184 191.512 776.08 191.512V195.04H775.192C774.136 195.04 773.336 195.288 772.792 195.784C772.264 196.28 772 197.144 772 198.376V205H768.64V191.704H772V193.768ZM777.479 198.304C777.479 196.96 777.743 195.768 778.271 194.728C778.816 193.688 779.544 192.888 780.456 192.328C781.384 191.768 782.416 191.488 783.552 191.488C784.544 191.488 785.408 191.688 786.144 192.088C786.896 192.488 787.496 192.992 787.944 193.6V191.704H791.328V205H787.944V203.056C787.512 203.68 786.912 204.2 786.144 204.616C785.392 205.016 784.52 205.216 783.528 205.216C782.408 205.216 781.384 204.928 780.456 204.352C779.544 203.776 778.816 202.968 778.271 201.928C777.743 200.872 777.479 199.664 777.479 198.304ZM787.944 198.352C787.944 197.536 787.784 196.84 787.464 196.264C787.144 195.672 786.712 195.224 786.168 194.92C785.624 194.6 785.04 194.44 784.416 194.44C783.792 194.44 783.216 194.592 782.688 194.896C782.16 195.2 781.728 195.648 781.392 196.24C781.072 196.816 780.912 197.504 780.912 198.304C780.912 199.104 781.072 199.808 781.392 200.416C781.728 201.008 782.16 201.464 782.688 201.784C783.232 202.104 783.808 202.264 784.416 202.264C785.04 202.264 785.624 202.112 786.168 201.808C786.712 201.488 787.144 201.04 787.464 200.464C787.784 199.872 787.944 199.168 787.944 198.352ZM787.488 188.248L781.968 190.768V188.368L787.488 185.512V188.248Z" fill="black"/>
<path d="M989.84 198.6C989.84 196.952 990.208 195.48 990.944 194.184C991.696 192.872 992.712 191.856 993.992 191.136C995.288 190.4 996.736 190.032 998.336 190.032C1000.21 190.032 1001.85 190.512 1003.26 191.472C1004.66 192.432 1005.65 193.76 1006.21 195.456H1002.34C1001.96 194.656 1001.42 194.056 1000.71 193.656C1000.02 193.256 999.224 193.056 998.312 193.056C997.336 193.056 996.464 193.288 995.696 193.752C994.944 194.2 994.352 194.84 993.92 195.672C993.504 196.504 993.296 197.48 993.296 198.6C993.296 199.704 993.504 200.68 993.92 201.528C994.352 202.36 994.944 203.008 995.696 203.472C996.464 203.92 997.336 204.144 998.312 204.144C999.224 204.144 1000.02 203.944 1000.71 203.544C1001.42 203.128 1001.96 202.52 1002.34 201.72H1006.21C1005.65 203.432 1004.66 204.768 1003.26 205.728C1001.86 206.672 1000.22 207.144 998.336 207.144C996.736 207.144 995.288 206.784 993.992 206.064C992.712 205.328 991.696 204.312 990.944 203.016C990.208 201.72 989.84 200.248 989.84 198.6ZM1014.98 207.216C1013.7 207.216 1012.55 206.936 1011.53 206.376C1010.5 205.8 1009.69 204.992 1009.1 203.952C1008.53 202.912 1008.24 201.712 1008.24 200.352C1008.24 198.992 1008.53 197.792 1009.13 196.752C1009.73 195.712 1010.56 194.912 1011.6 194.352C1012.64 193.776 1013.8 193.488 1015.08 193.488C1016.36 193.488 1017.52 193.776 1018.56 194.352C1019.6 194.912 1020.41 195.712 1021.01 196.752C1021.61 197.792 1021.92 198.992 1021.92 200.352C1021.92 201.712 1021.61 202.912 1020.98 203.952C1020.37 204.992 1019.54 205.8 1018.49 206.376C1017.45 206.936 1016.28 207.216 1014.98 207.216ZM1014.98 204.288C1015.59 204.288 1016.16 204.144 1016.69 203.856C1017.23 203.552 1017.66 203.104 1017.98 202.512C1018.3 201.92 1018.46 201.2 1018.46 200.352C1018.46 199.088 1018.13 198.12 1017.45 197.448C1016.8 196.76 1015.99 196.416 1015.03 196.416C1014.07 196.416 1013.26 196.76 1012.61 197.448C1011.97 198.12 1011.65 199.088 1011.65 200.352C1011.65 201.616 1011.96 202.592 1012.58 203.28C1013.22 203.952 1014.02 204.288 1014.98 204.288ZM1031.75 193.512C1033.33 193.512 1034.61 194.016 1035.59 195.024C1036.57 196.016 1037.05 197.408 1037.05 199.2V207H1033.69V199.656C1033.69 198.6 1033.43 197.792 1032.9 197.232C1032.37 196.656 1031.65 196.368 1030.74 196.368C1029.81 196.368 1029.08 196.656 1028.53 197.232C1028.01 197.792 1027.74 198.6 1027.74 199.656V207H1024.38V193.704H1027.74V195.36C1028.19 194.784 1028.76 194.336 1029.45 194.016C1030.15 193.68 1030.92 193.512 1031.75 193.512ZM1052.61 200.064C1052.61 200.544 1052.58 200.976 1052.51 201.36H1042.79C1042.87 202.32 1043.21 203.072 1043.8 203.616C1044.39 204.16 1045.12 204.432 1045.99 204.432C1047.23 204.432 1048.12 203.896 1048.65 202.824H1052.27C1051.89 204.104 1051.15 205.16 1050.07 205.992C1048.98 206.808 1047.64 207.216 1046.06 207.216C1044.78 207.216 1043.63 206.936 1042.6 206.376C1041.59 205.8 1040.8 204.992 1040.23 203.952C1039.67 202.912 1039.39 201.712 1039.39 200.352C1039.39 198.976 1039.67 197.768 1040.23 196.728C1040.79 195.688 1041.57 194.888 1042.58 194.328C1043.59 193.768 1044.75 193.488 1046.06 193.488C1047.32 193.488 1048.45 193.76 1049.44 194.304C1050.45 194.848 1051.23 195.624 1051.77 196.632C1052.33 197.624 1052.61 198.768 1052.61 200.064ZM1049.13 199.104C1049.11 198.24 1048.8 197.552 1048.19 197.04C1047.59 196.512 1046.84 196.248 1045.96 196.248C1045.13 196.248 1044.43 196.504 1043.85 197.016C1043.29 197.512 1042.95 198.208 1042.82 199.104H1049.13ZM1054.2 200.352C1054.2 198.976 1054.48 197.776 1055.04 196.752C1055.6 195.712 1056.37 194.912 1057.37 194.352C1058.36 193.776 1059.49 193.488 1060.77 193.488C1062.42 193.488 1063.78 193.904 1064.85 194.736C1065.94 195.552 1066.67 196.704 1067.04 198.192H1063.41C1063.22 197.616 1062.89 197.168 1062.43 196.848C1061.98 196.512 1061.42 196.344 1060.75 196.344C1059.79 196.344 1059.03 196.696 1058.47 197.4C1057.91 198.088 1057.63 199.072 1057.63 200.352C1057.63 201.616 1057.91 202.6 1058.47 203.304C1059.03 203.992 1059.79 204.336 1060.75 204.336C1062.11 204.336 1063 203.728 1063.41 202.512H1067.04C1066.67 203.952 1065.94 205.096 1064.85 205.944C1063.77 206.792 1062.41 207.216 1060.77 207.216C1059.49 207.216 1058.36 206.936 1057.37 206.376C1056.37 205.8 1055.6 205 1055.04 203.976C1054.48 202.936 1054.2 201.728 1054.2 200.352ZM1073.41 196.464V202.896C1073.41 203.344 1073.52 203.672 1073.72 203.88C1073.95 204.072 1074.32 204.168 1074.83 204.168H1076.39V207H1074.28C1071.44 207 1070.03 205.624 1070.03 202.872V196.464H1068.44V193.704H1070.03V190.416H1073.41V193.704H1076.39V196.464H1073.41ZM1077.94 200.304C1077.94 198.96 1078.2 197.768 1078.73 196.728C1079.28 195.688 1080 194.888 1080.92 194.328C1081.84 193.768 1082.88 193.488 1084.01 193.488C1085 193.488 1085.87 193.688 1086.6 194.088C1087.36 194.488 1087.96 194.992 1088.4 195.6V193.704H1091.79V207H1088.4V205.056C1087.97 205.68 1087.37 206.2 1086.6 206.616C1085.85 207.016 1084.98 207.216 1083.99 207.216C1082.87 207.216 1081.84 206.928 1080.92 206.352C1080 205.776 1079.28 204.968 1078.73 203.928C1078.2 202.872 1077.94 201.664 1077.94 200.304ZM1088.4 200.352C1088.4 199.536 1088.24 198.84 1087.92 198.264C1087.6 197.672 1087.17 197.224 1086.63 196.92C1086.08 196.6 1085.5 196.44 1084.88 196.44C1084.25 196.44 1083.68 196.592 1083.15 196.896C1082.62 197.2 1082.19 197.648 1081.85 198.24C1081.53 198.816 1081.37 199.504 1081.37 200.304C1081.37 201.104 1081.53 201.808 1081.85 202.416C1082.19 203.008 1082.62 203.464 1083.15 203.784C1083.69 204.104 1084.27 204.264 1084.88 204.264C1085.5 204.264 1086.08 204.112 1086.63 203.808C1087.17 203.488 1087.6 203.04 1087.92 202.464C1088.24 201.872 1088.4 201.168 1088.4 200.352ZM1087.95 190.248L1082.43 192.768V190.368L1087.95 187.512V190.248Z" fill="black"/>
<path d="M1290.02 188.248V205H1286.66V188.248H1290.02ZM1300.7 191.512C1302.29 191.512 1303.57 192.016 1304.54 193.024C1305.52 194.016 1306.01 195.408 1306.01 197.2V205H1302.65V197.656C1302.65 196.6 1302.38 195.792 1301.86 195.232C1301.33 194.656 1300.61 194.368 1299.7 194.368C1298.77 194.368 1298.03 194.656 1297.49 195.232C1296.96 195.792 1296.7 196.6 1296.7 197.656V205H1293.34V191.704H1296.7V193.36C1297.14 192.784 1297.71 192.336 1298.4 192.016C1299.1 191.68 1299.87 191.512 1300.7 191.512ZM1314.75 201.904L1318.11 191.704H1321.68L1316.76 205H1312.68L1307.79 191.704H1311.39L1314.75 201.904ZM1335.93 198.064C1335.93 198.544 1335.9 198.976 1335.83 199.36H1326.11C1326.19 200.32 1326.53 201.072 1327.12 201.616C1327.71 202.16 1328.44 202.432 1329.31 202.432C1330.55 202.432 1331.44 201.896 1331.97 200.824H1335.59C1335.21 202.104 1334.47 203.16 1333.39 203.992C1332.3 204.808 1330.96 205.216 1329.38 205.216C1328.1 205.216 1326.95 204.936 1325.92 204.376C1324.91 203.8 1324.12 202.992 1323.55 201.952C1322.99 200.912 1322.71 199.712 1322.71 198.352C1322.71 196.976 1322.99 195.768 1323.55 194.728C1324.11 193.688 1324.89 192.888 1325.9 192.328C1326.91 191.768 1328.07 191.488 1329.38 191.488C1330.64 191.488 1331.77 191.76 1332.76 192.304C1333.77 192.848 1334.55 193.624 1335.09 194.632C1335.65 195.624 1335.93 196.768 1335.93 198.064ZM1332.45 197.104C1332.43 196.24 1332.12 195.552 1331.51 195.04C1330.91 194.512 1330.16 194.248 1329.28 194.248C1328.45 194.248 1327.75 194.504 1327.17 195.016C1326.61 195.512 1326.27 196.208 1326.14 197.104H1332.45ZM1341.74 193.768C1342.17 193.064 1342.73 192.512 1343.42 192.112C1344.13 191.712 1344.93 191.512 1345.82 191.512V195.04H1344.93C1343.88 195.04 1343.08 195.288 1342.53 195.784C1342.01 196.28 1341.74 197.144 1341.74 198.376V205H1338.38V191.704H1341.74V193.768ZM1352 194.464V200.896C1352 201.344 1352.1 201.672 1352.31 201.88C1352.53 202.072 1352.9 202.168 1353.41 202.168H1354.97V205H1352.86C1350.03 205 1348.61 203.624 1348.61 200.872V194.464H1347.03V191.704H1348.61V188.416H1352V191.704H1354.97V194.464H1352ZM1360.89 191.704V205H1357.53V191.704H1360.89ZM1361.83 188.248L1356.31 190.768V188.368L1361.83 185.512V188.248Z" fill="black"/>
</svg>
